<svg id="Capa_1" data-name="Capa 1" xmlns="http://www.w3.org/2000/svg" viewBox="0 0 318.35 93.87"><defs><style>.cls-1{fill:#f56785;}.cls-2{fill:#e5383b;}.cls-3{fill:#e0555c;}</style></defs><title>Shock-logo</title><path class="cls-1" d="M44.68,19.62a48.17,48.17,0,0,1,5.24,0c2.62.28,2.95-.9,2.4-3.06A19.28,19.28,0,0,0,46.21,6.14C38.07-.73,21-2.1,11.18,3.38-1.19,10.27-1.77,25.29,10.06,33.14c3.78,2.51,8.2,3.34,12.51,4.4,4,1,8.06,1.68,11.88,3.25,3.09,1.27,4.23,3.78,4,6.91-.22,2.82-2.37,4-4.77,4.58a26.34,26.34,0,0,1-6.66.81c-4.83-.13-9.29-1.18-10.73-6.79a2,2,0,0,0-2.18-1.61c-4.12,0-8.24,0-12.36,0-1.55,0-1.82.69-1.71,2.11.53,6.5,7.12,15.79,13,17.48,9.52,2.73,19.13,3.13,28.67-.21,8.16-2.87,12.83-8.92,13-16.83.16-8.56-3.91-14.28-12.35-17.67-6.4-2.56-13.23-3.5-19.8-5.41-2.76-.8-4.77-2.29-4.61-5.48s2.63-4.43,5.26-5a21.75,21.75,0,0,1,8.2,0c2,.38,4.07,1.34,4.63,3.37.68,2.45,2.16,2.63,4.16,2.51C41.68,19.55,43.18,19.63,44.68,19.62ZM55.52,79.57c-2.42,0-4.21.15-6,0-2.58-.29-3.23.86-3.09,3.21.16,2.73,0,5.48,0,8.22,0,1,0,2.1,1.42,2.12,2.38,0,4.77,0,7.15,0-1.3-1.9-2.94-1.41-4.42-1.43s-2.56-.27-2.58-2.22.64-2.66,2.58-2.61c1,0,2.47.71,3-.81-1.6-1.71-5.6,1.53-5.46-2.63C48.4,78.43,53,82.61,55.52,79.57Z" transform="translate(0)"/><path class="cls-2" d="M65.89,66c-2.38.12-3.07-.94-3.06-3.34q.15-29.4,0-58.81c0-2.35.51-3.33,3.06-3.19,3.49.18,7-.06,10.48-.11,2.16-.09,2.23,1.29,2.22,2.93,0,6.86.09,13.72-.08,20.57-.07,2.54.81,3.13,3.18,3.06,5.48-.15,11-.17,16.47,0,2.55.08,3.47-.59,3.39-3.28-.18-6.6.06-13.22-.11-19.82-.06-2.61.73-3.54,3.36-3.35a62.59,62.59,0,0,0,9,0c2.74-.21,3.27.89,3.26,3.4q-.15,29.19,0,58.36c0,2.52-.58,3.63-3.29,3.43a62.59,62.59,0,0,0-9,0c-2.75.19-3.36-1-3.31-3.48.13-6.73,0-13.46.08-20.2,0-2.18-.52-3.11-2.92-3-5.73.16-11.48.16-17.21,0-2.42-.07-2.91.89-2.87,3,.11,6.86,0,13.72.08,20.58,0,2.28-.76,3.12-3,3.07C72.36,65.77,69.12,65.93,65.89,66Z" transform="translate(0)"/><path class="cls-2" d="M293.07,6.91c3.22-6.1,8.57-7,14.75-6.25a74,74,0,0,0,8.12,0c-7.54,9.1-14.47,17.53-21.47,25.89-4.46,5.32-4.5,5.26-.08,10.49q10.26,12.13,20.48,24.29c1,1.21,2,2.47,3.48,4.37-5.94,0-11.13.19-16.29-.08-2.3-.12-2.68-3.11-4.49-4.2-4-6.28-9.59-11.32-14-17.28-1.06-1.43-2.17-1.9-3.55-.17-2.79,3.47-5.72,6.84-8.57,10.27-1.09,1.29-.63,2.87-.64,4.33-.06,7.18,0,7.18-7.35,7.18-1.87,0-3.75-.09-5.62,0s-2.67-.58-2.67-2.55q.08-30.14,0-60.27c0-1.82.74-2.36,2.46-2.32,3.36.08,6.75.18,10.11,0,2.56-.16,3.12.87,3.08,3.22-.11,8.61-.05,17.22,0,25.83,0,1.36.17,2.72.26,4.08-.27.35-.25.66.23.7s.64-.24.57-.69Z" transform="translate(0)"/><path class="cls-2" d="M247.71,21.76c-4.39,0-8.63-.05-12.86,0a2.71,2.71,0,0,1-2.79-1.92c-2.54-5.3-7.18-6.49-12.53-6.1-5.56.42-9.39,3.25-11,8.57a35.86,35.86,0,0,0,0,21.72c1.57,5,4.91,8,10.26,8.49s10.56-.1,13.27-5.93c.4-.87.63-2,1.9-2,4.24,0,8.49-.14,12.73,0,1.9.07,1,1.61.77,2.58-1.83,9.25-7.66,15.15-16.41,17.6-11,3.1-21.77,2.46-30.89-5.66-4.45-4-6.85-9.14-8.06-14.85-2-9.44-1.87-18.79,1.84-27.87A24.44,24.44,0,0,1,213.44.77c11.66-2,22.45-.38,30.28,9.78A19.93,19.93,0,0,1,247.71,21.76Z" transform="translate(0)"/><path class="cls-2" d="M124.8,34c.12-5.94.55-10.91,2.29-15.64,3.32-9,9.45-15.13,19-17.26,19-4.23,36.43,4.06,38.4,26.69.61,7.05.32,14-2.1,20.63-4.85,13.27-15.9,18.23-28.51,17.94-10-.23-18.55-3.64-24.06-12.53C125.9,47.49,125,40.35,124.8,34Zm36.65-23.36c-3.37,0-6.75-.11-10.12,0C143.91,11,138,16,136.85,22.91c-1.55,9.33,5.2,17,15.38,17.4,3.62.13,7.25,0,10.87.09a3,3,0,0,1,3.25,2.52,3.07,3.07,0,0,1-1.26,3.29c-2.38,1.76-8.55.95-10.35-1.48a6.67,6.67,0,0,0-5.4-2.91c-5.24-.11-10.49-.25-15.73-.08-3.18.11-4,2-2.31,4.87,1.52,2.58,3.24,5,4.82,7.58a8.5,8.5,0,0,0,7.47,4.22c6.75.09,13.5.27,20.24,0a14.94,14.94,0,0,0,14.33-14.9c-.09-7.85-6.32-14.2-14.6-14.66-3.36-.19-6.74-.06-10.11,0-2.53,0-5.14-.25-5.08-3.48,0-3,2.59-3.23,4.95-3.26,3.87,0,7.75.08,11.61-.15a9.76,9.76,0,0,0,8.91-8.22c.29-2.09-.06-3.28-2.65-3.1C168,10.8,164.7,10.63,161.45,10.64Z" transform="translate(0)"/><path class="cls-3" d="M131.24,79.8c-2,3-7-1.58-7,3.7,0,4.18,4,.6,5.37,2.57-.48,1.46-1.84.78-2.78.76-1.78,0-2.72.32-2.72,2.43s1,2.44,2.74,2.4c1.39,0,2.89-.38,4.17.87-2.78.55-7.33,1.7-8-.1a19.47,19.47,0,0,1,0-12C123.77,78.24,128.08,79.77,131.24,79.8Z" transform="translate(0)"/><path class="cls-3" d="M203.36,86.19c.06,4.46-2.12,7-5.92,7-3.46,0-5.61-2.48-5.7-6.46-.11-4.42,2.13-7.23,5.75-7.23S203.3,82,203.36,86.19Zm-10.05,0c0,3.72,1.54,5.56,4.38,5.47,3.59-.11,4-2.71,4-5.45,0-3.46-1.6-5.44-4.29-5.24C194,81.25,193.39,83.7,193.31,86.22Z" transform="translate(0)"/><path class="cls-3" d="M277,80.11c-2,2.68-6.8-1.8-7.13,3.17-.3,4.63,4.34.64,5.71,2.85-.69,1.28-1.94.73-2.91.71-1.84,0-3,.13-3,2.54s1.22,2.15,2.81,2.3,4.29-1,4.21,1-2.93.75-4.53,1c-3.12.57-4.18-.77-3.84-3.85a36.31,36.31,0,0,0,0-7.07c-.24-2.65.78-3.65,3.35-3.27C273.4,79.79,275.15,79.15,277,80.11Z" transform="translate(0)"/><path class="cls-3" d="M83.05,79.78c2,1.09,2.13,3.16,2.88,4.88s1.34,3.41,2.18,5.58c2.73-3.42,2.94-7.61,5.07-10.76l1.17.48C92.64,84.15,91,88.4,89.16,92.52c-.6,1.32-1.43.28-1.85-.5A36.42,36.42,0,0,1,83.05,79.78Z" transform="translate(0)"/><path class="cls-3" d="M232.28,92.84q0-5.78,0-11.54c0-.37,0-1,.15-1.08,1.94-1.25,4.08-.7,6.1-.4,2.17.33,3.11,2,3.17,4.06a3.79,3.79,0,0,1-2.64,4.06C234.21,89.67,234.22,89.71,232.28,92.84ZM235.68,81c-2.53-.42-1.78,1.65-1.92,3.14-.19,1.92.22,3.09,2.56,2.84,2.08-.22,3.75-.68,3.65-3.2S237.92,81.05,235.68,81Z" transform="translate(0)"/><path class="cls-3" d="M164.64,92.68a2.58,2.58,0,0,1-.46.24c-7.45.92-7.45.92-7.45-6.37V79.74h1c1.24,2.32.64,4.94.48,7.35-.23,3.46.63,5.22,4.42,4.57A1.49,1.49,0,0,1,164.64,92.68Z" transform="translate(0)"/><path class="cls-1" d="M271.86,33.8c.07.45-.17.72-.57.69s-.5-.35-.23-.7Z" transform="translate(0)"/><path class="cls-2" d="M44.68,19.62c-1.5,0-3-.07-4.5,0-2,.12-3.48-.06-4.16-2.51-.56-2-2.58-3-4.63-3.37a21.75,21.75,0,0,0-8.2,0c-2.63.53-5.1,1.69-5.26,5s1.85,4.68,4.61,5.48c6.57,1.91,13.4,2.85,19.8,5.41C50.78,33,54.85,38.67,54.69,47.23c-.15,7.91-4.82,14-13,16.83C32.17,67.4,22.56,67,13,64.27,7.14,62.58.55,53.29,0,46.79c-.11-1.42.16-2.12,1.71-2.11,4.12,0,8.24,0,12.36,0a2,2,0,0,1,2.18,1.61C17.71,51.91,22.17,53,27,53.09a26.34,26.34,0,0,0,6.66-.81c2.4-.56,4.55-1.76,4.77-4.58.25-3.13-.89-5.64-4-6.91-3.82-1.57-7.89-2.27-11.88-3.25-4.31-1.06-8.73-1.89-12.51-4.4C-1.77,25.29-1.19,10.27,11.18,3.38,21-2.1,38.07-.73,46.21,6.14A19.28,19.28,0,0,1,52.32,16.6c.55,2.16.22,3.34-2.4,3.06A48.17,48.17,0,0,0,44.68,19.62Z" transform="translate(0)"/><path class="cls-3" d="M8.1,86.23a2,2,0,0,1,0-.74c.9-1.94-2.19-5.59,2.41-5.9,5-.33,7.63,1.6,8.12,5.61.52,4.26-1.35,7.17-5,7.77-.73.12-1.49,0-2.22.16-2.54.4-3.69-.51-3.33-3.19A27,27,0,0,0,8.1,86.23Zm1.29,0c1.46,1.64-2.12,5.49,2.76,5.41,3.34,0,4.94-1.73,4.94-5.12,0-3.58-1.67-5.41-5.09-5.45C7.38,81,10.8,84.63,9.39,86.19Z" transform="translate(0)"/><path class="cls-3" d="M55.52,79.57c-2.49,3-7.12-1.14-7.28,3.82-.14,4.16,3.86.92,5.46,2.63-.56,1.52-2,.84-3,.81-1.94,0-2.6.67-2.58,2.61s1,2.19,2.58,2.22,3.12-.47,4.42,1.43c-2.38,0-4.77,0-7.15,0-1.44,0-1.41-1.1-1.42-2.12,0-2.74.12-5.49,0-8.22-.14-2.35.51-3.5,3.09-3.21C51.31,79.72,53.1,79.57,55.52,79.57Z" transform="translate(0)"/><path class="cls-3" d="M304.31,93.58c0-4.75-.38-8.9.15-12.92.3-2.27,2.94-.93,4.48-1,2.46-.14,5.56.6,4.87,3.54s.09,5.22.26,7.8c.05.71.72,2-.75,2-1,0-.82-1.1-.77-1.77.27-3.2-1.63-3.53-4.21-3.61C303.65,87.43,307.08,91.58,304.31,93.58ZM309.12,81c-1.65.1-3.63-.63-3.34,2.14.16,1.48-.55,3.39,2.18,3.13,1.9-.19,4.27.47,4.46-2.48C312.56,81.46,310.83,81,309.12,81Z" transform="translate(0)"/><path class="cls-2" d="M133.21,44.37c5.46,0,10.28,0,15.1,0,2.5,0,4.1,1.57,5.22,3.68A24.67,24.67,0,0,0,160,55.71c-6.63-.22-12.36.44-18.08-.49-2.6-.43-3.72-2.74-5-4.75Z" transform="translate(0)"/></svg>