<?xml version="1.0" encoding="utf-8"?>
<!-- Generator: Adobe Illustrator 24.0.0, SVG Export Plug-In . SVG Version: 6.00 Build 0)  -->
<svg version="1.1" id="Capa_1" xmlns="http://www.w3.org/2000/svg" xmlns:xlink="http://www.w3.org/1999/xlink" x="0px" y="0px"
	 viewBox="0 0 318.4 93.9" style="enable-background:new 0 0 318.4 93.9;" xml:space="preserve">
<style type="text/css">
	.st0{fill:#E5383B;}
	.st1{fill:#E0555C;}
	.st2{fill:#F56785;}
</style>
<title>Shock-logo</title>
<path class="st0" d="M65.9,66c-2.4,0.1-3.1-0.9-3.1-3.3c0.1-19.6,0.1-39.2,0-58.8c0-2.3,0.5-3.3,3.1-3.2c3.5,0.2,7-0.1,10.5-0.1
	c2.2-0.1,2.2,1.3,2.2,2.9c0,6.9,0.1,13.7-0.1,20.6c-0.1,2.5,0.8,3.1,3.2,3.1c5.5-0.1,11-0.2,16.5,0c2.6,0.1,3.5-0.6,3.4-3.3
	c-0.2-6.6,0.1-13.2-0.1-19.8c-0.1-2.6,0.7-3.5,3.4-3.3c3,0.2,6,0.2,9,0c2.7-0.2,3.3,0.9,3.3,3.4c-0.1,19.5-0.1,38.9,0,58.4
	c0,2.5-0.6,3.6-3.3,3.4c-3-0.2-6-0.2-9,0c-2.8,0.2-3.4-1-3.3-3.5c0.1-6.7,0-13.5,0.1-20.2c0-2.2-0.5-3.1-2.9-3
	c-5.7,0.2-11.5,0.2-17.2,0c-2.4-0.1-2.9,0.9-2.9,3c0.1,6.9,0,13.7,0.1,20.6c0,2.3-0.8,3.1-3,3.1C72.4,65.8,69.1,65.9,65.9,66z"/>
<path class="st0" d="M293.1,6.9c3.2-6.1,8.6-7,14.8-6.3c2.7,0.1,5.4,0.1,8.1,0c-7.5,9.1-14.5,17.5-21.5,25.9
	c-4.5,5.3-4.5,5.3-0.1,10.5c6.8,8.1,13.7,16.2,20.5,24.3c1,1.2,2,2.5,3.5,4.4c-5.9,0-11.1,0.2-16.3-0.1c-2.3-0.1-2.7-3.1-4.5-4.2
	c-4-6.3-9.6-11.3-14-17.3c-1.1-1.4-2.2-1.9-3.5-0.2c-2.8,3.5-5.7,6.8-8.6,10.3c-1.1,1.3-0.6,2.9-0.6,4.3c-0.1,7.2,0,7.2-7.4,7.2
	c-1.9,0-3.8-0.1-5.6,0s-2.7-0.6-2.7-2.5c0.1-20.1,0.1-40.2,0-60.3c0-1.8,0.7-2.4,2.5-2.3c3.4,0.1,6.8,0.2,10.1,0
	c2.6-0.2,3.1,0.9,3.1,3.2c-0.1,8.6,0,17.2,0,25.8c0,1.4,0.2,2.7,0.3,4.1c-0.3,0.3-0.3,0.7,0.2,0.7s0.6-0.2,0.6-0.7L293.1,6.9z"/>
<path class="st0" d="M247.7,21.8c-4.4,0-8.6,0-12.9,0c-1.3,0.1-2.4-0.7-2.8-1.9c-2.5-5.3-7.2-6.5-12.5-6.1c-5.6,0.4-9.4,3.3-11,8.6
	c-2.2,7.1-2.2,14.7,0,21.7c1.6,5,4.9,8,10.3,8.5s10.6-0.1,13.3-5.9c0.4-0.9,0.6-2,1.9-2c4.2,0,8.5-0.1,12.7,0c1.9,0.1,1,1.6,0.8,2.6
	c-1.8,9.3-7.7,15.2-16.4,17.6c-11,3.1-21.8,2.5-30.9-5.7c-4.4-4-6.9-9.1-8.1-14.9c-2-9.4-1.9-18.8,1.8-27.9
	C197.1,8,204.6,2,213.4,0.8c11.7-2,22.4-0.4,30.3,9.8C246.2,13.8,247.6,17.7,247.7,21.8z"/>
<path class="st0" d="M124.8,34c0.1-5.9,0.6-10.9,2.3-15.6c3.3-9,9.5-15.1,19-17.3c19-4.2,36.4,4.1,38.4,26.7c0.6,7,0.3,14-2.1,20.6
	c-4.9,13.3-15.9,18.2-28.5,17.9c-10-0.2-18.6-3.6-24.1-12.5C125.9,47.5,125,40.3,124.8,34z M161.5,10.6c-3.4,0-6.8-0.1-10.1,0
	C143.9,11,138,16,136.9,22.9c-1.6,9.3,5.2,17,15.4,17.4c3.6,0.1,7.3,0,10.9,0.1c1.6-0.2,3,1,3.3,2.5c0.3,1.3-0.2,2.6-1.3,3.3
	c-2.4,1.8-8.6,1-10.4-1.5c-1.2-1.8-3.2-2.9-5.4-2.9c-5.2-0.1-10.5-0.3-15.7-0.1c-3.2,0.1-4,2-2.3,4.9c1.5,2.6,3.2,5,4.8,7.6
	c1.5,2.7,4.4,4.3,7.5,4.2c6.8,0.1,13.5,0.3,20.2,0c8-0.3,14.3-6.9,14.3-14.9c-0.1-7.8-6.3-14.2-14.6-14.7c-3.4-0.2-6.7-0.1-10.1,0
	c-2.5,0-5.1-0.3-5.1-3.5c0-3,2.6-3.2,4.9-3.3c3.9,0,7.8,0.1,11.6-0.1c4.5-0.3,8.2-3.7,8.9-8.2c0.3-2.1-0.1-3.3-2.6-3.1
	C168,10.8,164.7,10.6,161.5,10.6L161.5,10.6z"/>
<path class="st1" d="M131.2,78.5c-2,3.3-7-1.7-7,4.1c0,4.6,4,0.7,5.4,2.8c-0.5,1.6-1.8,0.9-2.8,0.8c-1.8,0-2.7,0.4-2.7,2.7
	c0,2.3,1,2.7,2.7,2.6c1.4,0,2.9-0.4,4.2,1c-2.8,0.6-7.3,1.9-8-0.1c-1.3-4.3-1.3-8.9,0-13.2C123.8,76.8,128.1,78.5,131.2,78.5z"/>
<path class="st1" d="M203.4,85.4c0.1,5-2.1,7.8-5.9,7.8c-3.5,0-5.6-2.8-5.7-7.2c-0.1-4.9,2.1-8.1,5.8-8.1S203.3,80.7,203.4,85.4z
	 M193.3,85.4c0,4.2,1.5,6.2,4.4,6.1c3.6-0.1,4-3,4-6.1c0-3.9-1.6-6.1-4.3-5.9C194,79.8,193.4,82.6,193.3,85.4L193.3,85.4z"/>
<path class="st1" d="M276.9,78.7c-2,3-6.8-2-7.1,3.5c-0.3,5.1,4.3,0.7,5.7,3.1c-0.7,1.4-1.9,0.8-2.9,0.8c-1.8,0-3,0.1-3,2.8
	c0,2.7,1.2,2.4,2.8,2.5c1.6,0.2,4.3-1.1,4.2,1.1s-2.9,0.8-4.5,1.1c-3.1,0.6-4.2-0.9-3.8-4.3c0.2-2.6,0.2-5.2,0-7.8
	c-0.2-2.9,0.8-4,3.3-3.6C273.4,78.3,275.1,77.6,276.9,78.7z"/>
<path class="st1" d="M83.1,78.2c2.3,1.2,2.4,3.5,3.2,5.4c0.8,1.9,1.5,3.8,2.5,6.2c3.1-3.8,3.3-8.5,5.7-12l1.3,0.5
	c-1.9,4.7-3.8,9.4-5.9,14c-0.7,1.5-1.6,0.3-2.1-0.6C85.4,87.7,83.8,83,83.1,78.2z"/>
<path class="st1" d="M232.3,92.8c0-4.3,0-8.6,0-12.9c0-0.4,0-1.1,0.2-1.2c2.3-1.4,4.7-0.8,7.1-0.4c2.5,0.4,3.6,2.2,3.7,4.5
	c0.2,2-1,3.9-3.1,4.5C234.5,89.3,234.5,89.3,232.3,92.8z M235.7,81c-2.5-0.4-1.8,1.7-1.9,3.1c-0.2,1.9,0.2,3.1,2.6,2.8
	c2.1-0.2,3.8-0.7,3.6-3.2S237.9,81.1,235.7,81z"/>
<path class="st1" d="M167.2,92.6c-0.2,0.1-0.4,0.2-0.6,0.3c-9.8,1-9.8,1-9.8-7.2v-7.7h1.3c1.6,2.6,0.8,5.6,0.6,8.3
	c-0.3,3.9,0.8,5.9,5.8,5.2c1-0.4,2.2,0.1,2.6,0.9C167.1,92.4,167.1,92.5,167.2,92.6z"/>
<path class="st2" d="M271.9,33.8c0.1,0.5-0.2,0.7-0.6,0.7s-0.5-0.3-0.2-0.7L271.9,33.8z"/>
<path class="st0" d="M44.7,19.6c-1.5,0-3-0.1-4.5,0c-2,0.1-3.5-0.1-4.2-2.5c-0.6-2-2.6-3-4.6-3.4c-2.7-0.5-5.5-0.5-8.2,0
	c-2.6,0.5-5.1,1.7-5.3,5s1.9,4.7,4.6,5.5c6.6,1.9,13.4,2.9,19.8,5.4c8.4,3.4,12.5,9,12.4,17.6c-0.2,7.9-4.8,14-13,16.8
	C32.2,67.4,22.6,67,13,64.3c-5.9-1.7-12.4-11-13-17.5c-0.1-1.4,0.2-2.1,1.7-2.1c4.1,0,8.2,0,12.4,0c1-0.1,2,0.6,2.2,1.6
	c1.5,5.6,5.9,6.7,10.8,6.8c2.2,0,4.5-0.3,6.7-0.8c2.4-0.6,4.5-1.8,4.8-4.6c0.3-3.1-0.9-5.6-4-6.9c-3.8-1.6-7.9-2.3-11.9-3.3
	c-4.3-1.1-8.7-1.9-12.5-4.4C-1.8,25.3-1.2,10.3,11.2,3.4c9.8-5.5,26.9-4.1,35,2.8c3.1,2.7,5.3,6.4,6.1,10.5c0.5,2.2,0.2,3.3-2.4,3.1
	C48.2,19.6,46.4,19.5,44.7,19.6z"/>
<path class="st1" d="M8.1,85.6c0-0.3,0-0.5,0-0.8c0.9-2.1-2.2-6.1,2.4-6.5c5-0.4,7.6,1.8,8.1,6.1c0.5,4.7-1.4,7.8-5,8.5
	c-0.7,0.1-1.5,0-2.2,0.2c-2.5,0.4-3.7-0.6-3.3-3.5C8.2,88.3,8.2,86.9,8.1,85.6z M9.4,85.6c1.5,1.8-2.1,6,2.8,5.9
	c3.3,0,4.9-1.9,4.9-5.6c0-3.9-1.7-5.9-5.1-6C7.4,79.9,10.8,83.8,9.4,85.6L9.4,85.6z"/>
<path class="st1" d="M54.7,77.7c-2.5,3.4-7.1-1.3-7.3,4.4c-0.1,4.8,3.9,1.1,5.5,3c-0.6,1.7-2,1-3,0.9c-1.9,0-2.6,0.8-2.6,3
	s1,2.5,2.6,2.5c1.6,0,3.1-0.5,4.4,1.6c-2.4,0-4.8,0-7.2,0c-1.4,0-1.4-1.3-1.4-2.4c0-3.1,0.1-6.3,0-9.4c-0.1-2.7,0.5-4,3.1-3.7
	C50.5,77.8,52.3,77.7,54.7,77.7z"/>
<path class="st1" d="M304.3,93.6c0-5.2-0.4-9.8,0.1-14.2c0.3-2.5,2.9-1,4.4-1.1c2.4-0.2,5.4,0.7,4.7,3.9s0.1,5.7,0.3,8.6
	c0,0.8,0.7,2.2-0.7,2.2c-1,0-0.8-1.2-0.7-1.9c0.3-3.5-1.6-3.9-4.1-4C303.7,86.8,307,91.4,304.3,93.6z M309,79.7
	c-1.6,0.1-3.5-0.7-3.3,2.4c0.2,1.6-0.5,3.7,2.1,3.4c1.9-0.2,4.2,0.5,4.3-2.7C312.3,80.2,310.7,79.7,309,79.7z"/>
<path class="st0" d="M133.2,44.4c5.5,0,10.3,0,15.1,0c2.5,0,4.1,1.6,5.2,3.7c1.6,3,3.8,5.6,6.5,7.7c-6.6-0.2-12.4,0.4-18.1-0.5
	c-2.6-0.4-3.7-2.7-5-4.8L133.2,44.4z"/>
</svg>
